<svg version="1.1" id="Layer_1" xmlns="http://www.w3.org/2000/svg" xmlns:xlink="http://www.w3.org/1999/xlink" x="0px" y="0px"
	 width="100%" viewBox="0 0 2500 395" enable-background="new 0 0 2500 395" xml:space="preserve">
<path fill="#000000" opacity="1.000000" stroke="none" 
	d="
M1896.000000,396.000000 
	C1264.000000,396.000000 632.500000,396.000000 1.000000,396.000000 
	C1.000000,264.333344 1.000000,132.666672 1.000000,1.000000 
	C834.333313,1.000000 1667.666626,1.000000 2501.000000,1.000000 
	C2501.000000,132.666672 2501.000000,264.333344 2501.000000,396.000000 
	C2299.500000,396.000000 2098.000000,396.000000 1896.000000,396.000000 
M615.994202,174.810516 
	C614.586975,178.410065 612.981812,181.946213 611.805603,185.619720 
	C605.436646,205.510864 604.943420,225.849915 606.897705,246.468384 
	C608.341736,261.704498 612.018188,276.068939 619.725220,289.432770 
	C627.442566,302.814423 636.976562,314.504944 649.784424,323.209045 
	C668.976685,336.251953 689.961731,343.446289 713.512329,343.154083 
	C725.581543,343.004333 737.380249,341.984222 749.649963,339.119110 
	C759.436829,346.916809 768.958008,355.080688 779.076355,362.421448 
	C792.345459,372.048065 805.864929,381.363403 822.613403,384.337341 
	C828.751526,385.427246 834.205750,385.056152 838.854492,380.612915 
	C843.671387,376.009033 844.471191,369.450134 843.651184,363.899811 
	C842.065430,353.165802 839.861755,342.194641 835.706421,332.243713 
	C829.066345,316.342346 820.624878,301.193176 813.330627,285.141724 
	C814.899902,281.438751 816.724548,277.821136 817.995544,274.018463 
	C824.531067,254.465240 826.005798,234.481018 824.175476,213.938080 
	C822.603943,196.300903 818.416199,179.814117 809.247314,164.557831 
	C800.035950,149.230850 787.937622,136.835938 772.376892,128.190552 
	C751.837891,116.779297 729.796997,111.169907 706.182495,114.089897 
	C696.704651,115.261848 687.351624,117.443726 677.316956,118.869064 
	C670.143250,113.012344 663.183350,106.867134 655.750793,101.359802 
	C640.918213,90.369286 626.102478,79.328842 607.297302,75.610527 
	C595.756165,73.328514 586.453308,78.546066 585.998474,91.680328 
	C585.668213,101.218002 587.850891,110.315178 590.706909,119.319016 
	C596.844666,138.669113 606.305664,156.464523 615.994202,174.810516 
M169.500000,201.000000 
	C202.926590,201.000000 236.353165,201.000000 269.711731,201.000000 
	C269.711731,189.022186 269.711731,177.616592 269.711731,165.820618 
	C221.021317,165.820618 172.618011,165.820618 124.288933,165.820618 
	C124.288933,132.020187 124.288933,98.616882 124.288933,64.819412 
	C173.979950,64.819412 223.383133,64.819412 272.708313,64.819412 
	C272.708313,53.015259 272.708313,41.609570 272.708313,30.289911 
	C210.348312,30.289911 148.280426,30.289911 86.284157,30.289911 
	C86.284157,132.645203 86.284157,234.710342 86.284157,336.717712 
	C149.636505,336.717712 212.704285,336.717712 275.714447,336.717712 
	C275.714447,325.027740 275.714447,313.622223 275.714447,301.826263 
	C225.026917,301.826263 174.623810,301.826263 124.286026,301.826263 
	C124.286026,268.026062 124.286026,234.622772 124.286026,201.000000 
	C139.214035,201.000000 153.857010,201.000000 169.500000,201.000000 
M1893.000000,236.500000 
	C1893.000000,167.747879 1893.000000,98.995758 1893.000000,30.276184 
	C1881.045044,30.276184 1869.640625,30.276184 1857.913818,30.276184 
	C1857.913818,71.646706 1857.913818,112.742317 1857.913818,153.837936 
	C1857.470459,154.170486 1857.027222,154.503036 1856.583862,154.835571 
	C1855.069336,153.371658 1853.398315,152.036667 1852.067749,150.421173 
	C1846.590332,143.770706 1842.169800,135.851624 1835.612915,130.568283 
	C1820.268433,118.204491 1801.671021,113.487701 1782.293335,113.188660 
	C1768.183350,112.970909 1754.198730,115.391525 1741.054810,121.042435 
	C1724.126465,128.320450 1709.958130,139.112015 1698.957153,154.063034 
	C1685.486084,172.371490 1679.367554,193.219421 1678.142212,215.490097 
	C1677.184937,232.887192 1677.536743,250.399368 1682.061157,267.408722 
	C1689.798706,296.498444 1706.378418,319.125214 1733.527710,332.638275 
	C1755.432007,343.540802 1778.977173,346.152863 1802.933472,340.894012 
	C1824.289307,336.205994 1842.027954,325.768311 1853.123657,305.969757 
	C1853.801392,304.760376 1855.916260,304.356476 1858.188721,303.133026 
	C1858.188721,315.291565 1858.188721,326.045380 1858.188721,336.708374 
	C1869.986328,336.708374 1881.391235,336.708374 1893.000000,336.708374 
	C1893.000000,303.444824 1893.000000,270.472412 1893.000000,236.500000 
M1971.448486,303.960266 
	C1977.129517,309.641205 1982.540283,315.627411 1988.544800,320.943054 
	C2003.562988,334.238190 2021.746460,341.086517 2041.286621,342.658203 
	C2054.967529,343.758636 2068.994141,342.425842 2082.707520,340.821381 
	C2102.250732,338.534790 2118.883545,329.443481 2132.805664,315.622803 
	C2142.116943,306.379395 2148.488281,295.088165 2153.867188,283.249268 
	C2155.091553,280.553986 2155.483398,277.480408 2156.320801,274.347412 
	C2146.079834,271.549744 2136.350586,268.862335 2126.601074,266.250610 
	C2124.340820,265.645111 2122.819336,265.832062 2121.839355,268.797241 
	C2120.398193,273.157684 2118.387451,277.465790 2115.877441,281.311859 
	C2107.655273,293.910614 2097.052734,303.332947 2081.878662,307.158661 
	C2071.537842,309.765808 2061.167969,310.200409 2050.672607,309.977539 
	C2041.025635,309.772705 2031.781860,307.534454 2023.041992,303.513794 
	C2006.669800,295.981873 1995.845947,282.979858 1989.501465,266.606506 
	C1986.191528,258.064240 1985.174805,248.633453 1982.972656,238.945923 
	C2042.500732,238.945923 2100.572754,238.945923 2158.001709,238.945923 
	C2158.001709,225.356186 2158.912842,212.078644 2157.788818,198.975693 
	C2156.086670,179.132553 2147.281006,161.877213 2134.352295,146.958893 
	C2114.669189,124.247177 2089.023193,113.849007 2059.445068,113.190277 
	C2049.901123,112.977722 2040.128174,114.161194 2030.770874,116.160995 
	C2004.110107,121.858803 1982.747192,136.221664 1967.233032,158.591064 
	C1957.385376,172.789856 1951.557861,188.658813 1949.877441,206.124893 
	C1948.208740,223.470276 1948.250732,240.771545 1951.211670,257.829498 
	C1954.092285,274.425018 1960.796143,289.755920 1971.448486,303.960266 
M890.000000,149.500000 
	C890.000000,211.924454 890.000000,274.348907 890.000000,336.714294 
	C902.972595,336.714294 915.377869,336.714294 928.174438,336.714294 
	C928.174438,291.359680 928.174438,246.289459 928.174438,200.826508 
	C977.972839,200.826508 1027.375854,200.826508 1076.711914,200.826508 
	C1076.711914,189.022690 1076.711914,177.617126 1076.711914,165.821442 
	C1027.021973,165.821442 977.618958,165.821442 928.288269,165.821442 
	C928.288269,132.021347 928.288269,98.618118 928.288269,64.820976 
	C978.978455,64.820976 1029.381470,64.820976 1079.709229,64.820976 
	C1079.709229,53.017170 1079.709229,41.611549 1079.709229,30.288616 
	C1016.350525,30.288616 953.282837,30.288616 890.000000,30.288616 
	C890.000000,69.884567 890.000000,109.192284 890.000000,149.500000 
M1508.727661,148.001831 
	C1518.203125,148.001389 1527.822510,146.961975 1537.119873,148.248337 
	C1550.477295,150.096390 1561.342529,157.469955 1568.808105,168.702835 
	C1576.579956,180.396881 1579.765747,193.906937 1579.878784,207.750183 
	C1580.216431,249.066147 1580.000000,290.386658 1580.000000,331.705383 
	C1580.000000,333.449860 1580.000000,335.194336 1580.000000,336.638977 
	C1592.129517,336.638977 1603.535889,336.638977 1615.000000,336.638977 
	C1615.000000,293.461731 1614.895996,250.645004 1615.064453,207.829376 
	C1615.113770,195.322250 1614.190308,182.967300 1610.947754,170.912598 
	C1604.046021,145.254272 1588.884399,126.687759 1563.226196,118.100296 
	C1550.541870,113.855034 1537.445923,112.439018 1523.861084,113.755676 
	C1514.203735,114.691673 1504.938599,116.472710 1496.261230,120.433304 
	C1481.509033,127.166695 1471.101318,138.612320 1463.684692,152.849106 
	C1462.393188,155.328369 1461.091797,156.842987 1457.789795,155.413879 
	C1457.789795,143.338242 1457.789795,131.256332 1457.789795,119.000000 
	C1447.416016,119.000000 1437.429565,119.227036 1427.461548,118.897636 
	C1422.942871,118.748322 1421.905273,120.288551 1421.912964,124.590454 
	C1422.036011,193.899094 1421.998657,263.208008 1422.009766,332.516846 
	C1422.010010,333.950867 1422.155640,335.384857 1422.227295,336.705627 
	C1434.327881,336.705627 1446.064819,336.705627 1458.000000,336.705627 
	C1458.000000,334.766479 1458.000000,333.120270 1458.000000,331.474060 
	C1458.000000,297.152863 1458.087524,262.831299 1457.952393,228.510620 
	C1457.905151,216.522568 1458.164307,204.678207 1461.945557,193.101410 
	C1466.566284,178.953796 1473.951904,166.595551 1486.277100,158.181686 
	C1492.758789,153.756866 1500.616577,151.347488 1508.727661,148.001831 
M2258.000000,242.500000 
	C2258.000000,263.259186 2258.000000,284.018341 2258.000000,305.169128 
	C2241.031006,305.169128 2224.624756,305.169128 2208.284668,305.169128 
	C2208.284668,315.972687 2208.284668,326.376953 2208.284668,336.724152 
	C2255.299561,336.724152 2302.029541,336.724152 2348.722656,336.724152 
	C2348.722656,326.041931 2348.722656,315.637848 2348.722656,304.842926 
	C2330.043213,304.842926 2311.637695,304.842926 2293.000000,304.842926 
	C2293.000000,277.312897 2292.599854,250.169830 2293.181641,223.047821 
	C2293.442627,210.880112 2294.664062,198.533264 2297.277344,186.670319 
	C2300.053467,174.067749 2306.219727,162.812592 2317.304199,154.927048 
	C2329.496582,146.253403 2343.000977,145.411346 2356.955566,148.073502 
	C2373.395752,151.209824 2385.458252,160.425583 2390.802734,176.510406 
	C2393.573486,184.850327 2394.344971,193.854553 2396.182373,203.403473 
	C2404.821289,202.093781 2414.092773,200.697449 2423.360352,199.277512 
	C2426.079834,198.860840 2430.133789,199.261169 2431.161133,197.699066 
	C2432.426758,195.774277 2431.147949,192.190338 2431.003418,189.321686 
	C2430.211182,173.600159 2426.338379,158.803345 2418.038086,145.277069 
	C2410.403320,132.835220 2399.781250,124.019867 2386.240234,118.676483 
	C2371.488525,112.855415 2356.352783,111.859940 2340.854004,114.985336 
	C2322.759766,118.634071 2308.477783,127.577072 2300.028076,144.458176 
	C2298.406250,147.698044 2296.455078,148.664444 2292.810547,147.574097 
	C2292.810547,138.024475 2292.810547,128.607712 2292.810547,119.291046 
	C2266.343506,119.291046 2240.276123,119.291046 2214.292480,119.291046 
	C2214.292480,130.322220 2214.292480,141.060028 2214.292480,152.188385 
	C2228.988525,152.188385 2243.395508,152.188385 2258.000000,152.188385 
	C2258.000000,182.223495 2258.000000,211.861755 2258.000000,242.500000 
M547.538391,331.031891 
	C547.183411,330.679993 546.745789,330.380402 546.485291,329.968719 
	C532.978027,308.622162 519.521057,287.243683 505.977997,265.919861 
	C498.555725,254.233322 490.732574,242.789810 483.701233,230.876068 
	C482.238892,228.398407 482.397705,223.824478 483.682098,221.099182 
	C486.473175,215.176788 490.509583,209.846649 493.971771,204.234222 
	C507.731995,181.928024 521.471802,159.609207 535.208679,137.288574 
	C538.863037,131.350723 542.479858,125.389793 546.382202,119.000221 
	C533.318420,119.000221 520.990540,118.898285 508.668793,119.127258 
	C507.101746,119.156380 504.954651,120.541367 504.107269,121.928162 
	C486.667358,150.470032 469.374786,179.101959 452.060394,207.720490 
	C450.096405,210.966675 444.933411,211.059067 442.989380,207.850006 
	C425.657104,179.239044 408.362518,150.605026 390.898376,122.074829 
	C389.994690,120.598572 387.666779,119.168907 385.972687,119.133965 
	C373.827667,118.883446 361.675079,119.000046 349.110291,119.000046 
	C350.091522,120.931854 350.826508,122.690361 351.819794,124.288315 
	C371.186462,155.443756 390.600677,186.569626 409.952271,217.734390 
	C412.449219,221.755539 414.789856,225.962585 411.695587,230.771851 
	C409.515930,234.159592 407.186554,237.451401 405.023315,240.849228 
	C387.999207,267.588989 370.997589,294.343048 353.992828,321.095154 
	C350.708588,326.262024 347.441010,331.439484 343.993225,336.884583 
	C358.401978,336.884583 372.052124,336.884583 385.382080,336.884583 
	C390.539764,328.411133 395.514862,320.134918 400.589661,311.920288 
	C414.369904,289.613892 428.210114,267.344574 441.983276,245.033829 
	C444.736664,240.573685 450.340607,240.536835 453.007355,245.059616 
	C456.110718,250.322876 459.163727,255.617996 462.373138,260.816223 
	C476.903748,284.351044 491.417389,307.897095 506.142487,331.309906 
	C507.616394,333.653412 510.413666,336.649292 512.706543,336.746216 
	C525.282410,337.277893 537.892578,336.999817 550.981934,336.999817 
	C549.815125,334.929230 548.892639,333.292145 547.538391,331.031891 
M1236.000000,181.500000 
	C1236.000000,222.591721 1236.000000,263.683441 1236.000000,305.170197 
	C1210.364014,305.170197 1185.291992,305.170197 1160.286865,305.170197 
	C1160.286865,315.975555 1160.286865,326.380981 1160.286865,336.717346 
	C1220.973633,336.717346 1281.373291,336.717346 1341.714355,336.717346 
	C1341.714355,326.027008 1341.714355,315.621643 1341.714355,304.824585 
	C1318.025391,304.824585 1294.619751,304.824585 1271.000000,304.824585 
	C1271.000000,273.620331 1271.000000,242.813446 1271.000000,212.006546 
	C1271.000000,181.079559 1271.000000,150.152588 1271.000000,119.281807 
	C1236.365845,119.281807 1202.296997,119.281807 1168.284668,119.281807 
	C1168.284668,130.304611 1168.284668,141.043152 1168.284668,152.173798 
	C1190.972778,152.173798 1213.378906,152.173798 1236.000000,152.173798 
	C1236.000000,161.880127 1236.000000,171.190063 1236.000000,181.500000 
M1269.896729,28.370653 
	C1262.180664,24.368196 1254.184448,22.726763 1245.547485,24.981081 
	C1229.871460,29.072636 1218.753418,45.175022 1222.904907,61.848835 
	C1226.918579,77.969307 1241.229980,88.450562 1258.397339,85.898796 
	C1273.150146,83.705917 1284.008301,70.145111 1284.135254,56.806461 
	C1284.248291,44.928162 1280.128906,35.688839 1269.896729,28.370653 
z"/>
<path fill="#FFFFFF" opacity="1.000000" stroke="none" 
	d="
M169.000000,201.000000 
	C153.857010,201.000000 139.214035,201.000000 124.286026,201.000000 
	C124.286026,234.622772 124.286026,268.026062 124.286026,301.826263 
	C174.623810,301.826263 225.026917,301.826263 275.714447,301.826263 
	C275.714447,313.622223 275.714447,325.027740 275.714447,336.717712 
	C212.704285,336.717712 149.636505,336.717712 86.284157,336.717712 
	C86.284157,234.710342 86.284157,132.645203 86.284157,30.289911 
	C148.280426,30.289911 210.348312,30.289911 272.708313,30.289911 
	C272.708313,41.609570 272.708313,53.015259 272.708313,64.819412 
	C223.383133,64.819412 173.979950,64.819412 124.288933,64.819412 
	C124.288933,98.616882 124.288933,132.020187 124.288933,165.820618 
	C172.618011,165.820618 221.021317,165.820618 269.711731,165.820618 
	C269.711731,177.616592 269.711731,189.022186 269.711731,201.000000 
	C236.353165,201.000000 202.926590,201.000000 169.000000,201.000000 
z"/>
<path fill="#FFFFFF" opacity="1.000000" stroke="none" 
	d="
M1893.000000,237.000000 
	C1893.000000,270.472412 1893.000000,303.444824 1893.000000,336.708374 
	C1881.391235,336.708374 1869.986328,336.708374 1858.188721,336.708374 
	C1858.188721,326.045380 1858.188721,315.291565 1858.188721,303.133026 
	C1855.916260,304.356476 1853.801392,304.760376 1853.123657,305.969757 
	C1842.027954,325.768311 1824.289307,336.205994 1802.933472,340.894012 
	C1778.977173,346.152863 1755.432007,343.540802 1733.527710,332.638275 
	C1706.378418,319.125214 1689.798706,296.498444 1682.061157,267.408722 
	C1677.536743,250.399368 1677.184937,232.887192 1678.142212,215.490097 
	C1679.367554,193.219421 1685.486084,172.371490 1698.957153,154.063034 
	C1709.958130,139.112015 1724.126465,128.320450 1741.054810,121.042435 
	C1754.198730,115.391525 1768.183350,112.970909 1782.293335,113.188660 
	C1801.671021,113.487701 1820.268433,118.204491 1835.612915,130.568283 
	C1842.169800,135.851624 1846.590332,143.770706 1852.067749,150.421173 
	C1853.398315,152.036667 1855.069336,153.371658 1856.583862,154.835571 
	C1857.027222,154.503036 1857.470459,154.170486 1857.913818,153.837936 
	C1857.913818,112.742317 1857.913818,71.646706 1857.913818,30.276184 
	C1869.640625,30.276184 1881.045044,30.276184 1893.000000,30.276184 
	C1893.000000,98.995758 1893.000000,167.747879 1893.000000,237.000000 
M1798.502075,147.995926 
	C1793.098511,147.663956 1787.693359,147.027405 1782.291870,147.057831 
	C1766.861206,147.144714 1753.099121,152.476303 1741.413208,162.253769 
	C1723.759888,177.024078 1715.197632,196.679596 1714.192383,219.342697 
	C1713.729614,229.776505 1714.549805,240.424805 1716.173584,250.758133 
	C1718.879395,267.977509 1726.640991,282.639587 1740.405640,294.044922 
	C1758.407959,308.961273 1779.220337,313.165253 1801.233398,308.628082 
	C1827.912720,303.129059 1845.831055,286.008331 1853.782349,260.117615 
	C1860.554932,238.064941 1861.011108,215.444321 1852.113892,193.546570 
	C1842.337769,169.485657 1825.246338,153.597137 1798.502075,147.995926 
z"/>
<path fill="#FFAB40" opacity="1.000000" stroke="none" 
	d="
M677.941833,119.165924 
	C687.351624,117.443726 696.704651,115.261848 706.182495,114.089897 
	C729.796997,111.169907 751.837891,116.779297 772.376892,128.190552 
	C787.937622,136.835938 800.035950,149.230850 809.247314,164.557831 
	C818.416199,179.814117 822.603943,196.300903 824.175476,213.938080 
	C826.005798,234.481018 824.531067,254.465240 817.995544,274.018463 
	C816.724548,277.821136 814.899902,281.438751 812.838379,285.623352 
	C807.899170,293.015045 803.452148,299.925110 798.688293,306.980652 
	C795.804321,309.766510 793.444092,312.656281 790.626709,314.995239 
	C784.826294,319.810699 778.781616,324.331787 772.501343,328.939270 
	C770.761292,327.776398 769.221558,326.780304 767.974915,325.499054 
	C758.482422,315.742279 748.756775,306.190857 739.661255,296.074219 
	C725.608765,280.444000 711.229858,265.011658 698.376099,248.421005 
	C677.130981,220.999298 656.919617,192.773392 636.469910,164.742493 
	C633.723877,160.978424 632.124329,156.377960 630.307373,152.008926 
	C637.456604,142.513184 646.342041,135.510147 656.478027,129.470001 
	C663.883850,126.013168 670.912842,122.589546 677.941833,119.165924 
z"/>
<path fill="#FFFFFF" opacity="1.000000" stroke="none" 
	d="
M1971.239258,303.655579 
	C1960.796143,289.755920 1954.092285,274.425018 1951.211670,257.829498 
	C1948.250732,240.771545 1948.208740,223.470276 1949.877441,206.124893 
	C1951.557861,188.658813 1957.385376,172.789856 1967.233032,158.591064 
	C1982.747192,136.221664 2004.110107,121.858803 2030.770874,116.160995 
	C2040.128174,114.161194 2049.901123,112.977722 2059.445068,113.190277 
	C2089.023193,113.849007 2114.669189,124.247177 2134.352295,146.958893 
	C2147.281006,161.877213 2156.086670,179.132553 2157.788818,198.975693 
	C2158.912842,212.078644 2158.001709,225.356186 2158.001709,238.945923 
	C2100.572754,238.945923 2042.500732,238.945923 1982.972656,238.945923 
	C1985.174805,248.633453 1986.191528,258.064240 1989.501465,266.606506 
	C1995.845947,282.979858 2006.669800,295.981873 2023.041992,303.513794 
	C2031.781860,307.534454 2041.025635,309.772705 2050.672607,309.977539 
	C2061.167969,310.200409 2071.537842,309.765808 2081.878662,307.158661 
	C2097.052734,303.332947 2107.655273,293.910614 2115.877441,281.311859 
	C2118.387451,277.465790 2120.398193,273.157684 2121.839355,268.797241 
	C2122.819336,265.832062 2124.340820,265.645111 2126.601074,266.250610 
	C2136.350586,268.862335 2146.079834,271.549744 2156.320801,274.347412 
	C2155.483398,277.480408 2155.091553,280.553986 2153.867188,283.249268 
	C2148.488281,295.088165 2142.116943,306.379395 2132.805664,315.622803 
	C2118.883545,329.443481 2102.250732,338.534790 2082.707520,340.821381 
	C2068.994141,342.425842 2054.967529,343.758636 2041.286621,342.658203 
	C2021.746460,341.086517 2003.562988,334.238190 1988.544800,320.943054 
	C1982.540283,315.627411 1977.129517,309.641205 1971.239258,303.655579 
M2096.500000,207.000000 
	C2105.620850,207.000000 2114.741455,207.000000 2123.874023,207.000000 
	C2122.576904,175.652557 2098.224121,150.865234 2064.570801,147.200134 
	C2021.212646,142.478073 1990.587158,170.980179 1985.088867,207.000000 
	C2021.931396,207.000000 2058.715576,207.000000 2096.500000,207.000000 
z"/>
<path fill="#FFFFFF" opacity="1.000000" stroke="none" 
	d="
M890.000000,149.000000 
	C890.000000,109.192284 890.000000,69.884567 890.000000,30.288616 
	C953.282837,30.288616 1016.350525,30.288616 1079.709229,30.288616 
	C1079.709229,41.611549 1079.709229,53.017170 1079.709229,64.820976 
	C1029.381470,64.820976 978.978455,64.820976 928.288269,64.820976 
	C928.288269,98.618118 928.288269,132.021347 928.288269,165.821442 
	C977.618958,165.821442 1027.021973,165.821442 1076.711914,165.821442 
	C1076.711914,177.617126 1076.711914,189.022690 1076.711914,200.826508 
	C1027.375854,200.826508 977.972839,200.826508 928.174438,200.826508 
	C928.174438,246.289459 928.174438,291.359680 928.174438,336.714294 
	C915.377869,336.714294 902.972595,336.714294 890.000000,336.714294 
	C890.000000,274.348907 890.000000,211.924454 890.000000,149.000000 
z"/>
<path fill="#FFFFFF" opacity="1.000000" stroke="none" 
	d="
M1508.290283,148.014908 
	C1500.616577,151.347488 1492.758789,153.756866 1486.277100,158.181686 
	C1473.951904,166.595551 1466.566284,178.953796 1461.945557,193.101410 
	C1458.164307,204.678207 1457.905151,216.522568 1457.952393,228.510620 
	C1458.087524,262.831299 1458.000000,297.152863 1458.000000,331.474060 
	C1458.000000,333.120270 1458.000000,334.766479 1458.000000,336.705627 
	C1446.064819,336.705627 1434.327881,336.705627 1422.227295,336.705627 
	C1422.155640,335.384857 1422.010010,333.950867 1422.009766,332.516846 
	C1421.998657,263.208008 1422.036011,193.899094 1421.912964,124.590454 
	C1421.905273,120.288551 1422.942871,118.748322 1427.461548,118.897636 
	C1437.429565,119.227036 1447.416016,119.000000 1457.789795,119.000000 
	C1457.789795,131.256332 1457.789795,143.338242 1457.789795,155.413879 
	C1461.091797,156.842987 1462.393188,155.328369 1463.684692,152.849106 
	C1471.101318,138.612320 1481.509033,127.166695 1496.261230,120.433304 
	C1504.938599,116.472710 1514.203735,114.691673 1523.861084,113.755676 
	C1537.445923,112.439018 1550.541870,113.855034 1563.226196,118.100296 
	C1588.884399,126.687759 1604.046021,145.254272 1610.947754,170.912598 
	C1614.190308,182.967300 1615.113770,195.322250 1615.064453,207.829376 
	C1614.895996,250.645004 1615.000000,293.461731 1615.000000,336.638977 
	C1603.535889,336.638977 1592.129517,336.638977 1580.000000,336.638977 
	C1580.000000,335.194336 1580.000000,333.449860 1580.000000,331.705383 
	C1580.000000,290.386658 1580.216431,249.066147 1579.878784,207.750183 
	C1579.765747,193.906937 1576.579956,180.396881 1568.808105,168.702835 
	C1561.342529,157.469955 1550.477295,150.096390 1537.119873,148.248337 
	C1527.822510,146.961975 1518.203125,148.001389 1508.290283,148.014908 
z"/>
<path fill="#FFFFFF" opacity="1.000000" stroke="none" 
	d="
M2258.000000,242.000000 
	C2258.000000,211.861755 2258.000000,182.223495 2258.000000,152.188385 
	C2243.395508,152.188385 2228.988525,152.188385 2214.292480,152.188385 
	C2214.292480,141.060028 2214.292480,130.322220 2214.292480,119.291046 
	C2240.276123,119.291046 2266.343506,119.291046 2292.810547,119.291046 
	C2292.810547,128.607712 2292.810547,138.024475 2292.810547,147.574097 
	C2296.455078,148.664444 2298.406250,147.698044 2300.028076,144.458176 
	C2308.477783,127.577072 2322.759766,118.634071 2340.854004,114.985336 
	C2356.352783,111.859940 2371.488525,112.855415 2386.240234,118.676483 
	C2399.781250,124.019867 2410.403320,132.835220 2418.038086,145.277069 
	C2426.338379,158.803345 2430.211182,173.600159 2431.003418,189.321686 
	C2431.147949,192.190338 2432.426758,195.774277 2431.161133,197.699066 
	C2430.133789,199.261169 2426.079834,198.860840 2423.360352,199.277512 
	C2414.092773,200.697449 2404.821289,202.093781 2396.182373,203.403473 
	C2394.344971,193.854553 2393.573486,184.850327 2390.802734,176.510406 
	C2385.458252,160.425583 2373.395752,151.209824 2356.955566,148.073502 
	C2343.000977,145.411346 2329.496582,146.253403 2317.304199,154.927048 
	C2306.219727,162.812592 2300.053467,174.067749 2297.277344,186.670319 
	C2294.664062,198.533264 2293.442627,210.880112 2293.181641,223.047821 
	C2292.599854,250.169830 2293.000000,277.312897 2293.000000,304.842926 
	C2311.637695,304.842926 2330.043213,304.842926 2348.722656,304.842926 
	C2348.722656,315.637848 2348.722656,326.041931 2348.722656,336.724152 
	C2302.029541,336.724152 2255.299561,336.724152 2208.284668,336.724152 
	C2208.284668,326.376953 2208.284668,315.972687 2208.284668,305.169128 
	C2224.624756,305.169128 2241.031006,305.169128 2258.000000,305.169128 
	C2258.000000,284.018341 2258.000000,263.259186 2258.000000,242.000000 
z"/>
<path fill="#FFFFFF" opacity="1.000000" stroke="none" 
	d="
M547.754272,331.343475 
	C548.892639,333.292145 549.815125,334.929230 550.981934,336.999817 
	C537.892578,336.999817 525.282410,337.277893 512.706543,336.746216 
	C510.413666,336.649292 507.616394,333.653412 506.142487,331.309906 
	C491.417389,307.897095 476.903748,284.351044 462.373138,260.816223 
	C459.163727,255.617996 456.110718,250.322876 453.007355,245.059616 
	C450.340607,240.536835 444.736664,240.573685 441.983276,245.033829 
	C428.210114,267.344574 414.369904,289.613892 400.589661,311.920288 
	C395.514862,320.134918 390.539764,328.411133 385.382080,336.884583 
	C372.052124,336.884583 358.401978,336.884583 343.993225,336.884583 
	C347.441010,331.439484 350.708588,326.262024 353.992828,321.095154 
	C370.997589,294.343048 387.999207,267.588989 405.023315,240.849228 
	C407.186554,237.451401 409.515930,234.159592 411.695587,230.771851 
	C414.789856,225.962585 412.449219,221.755539 409.952271,217.734390 
	C390.600677,186.569626 371.186462,155.443756 351.819794,124.288315 
	C350.826508,122.690361 350.091522,120.931854 349.110291,119.000046 
	C361.675079,119.000046 373.827667,118.883446 385.972687,119.133965 
	C387.666779,119.168907 389.994690,120.598572 390.898376,122.074829 
	C408.362518,150.605026 425.657104,179.239044 442.989380,207.850006 
	C444.933411,211.059067 450.096405,210.966675 452.060394,207.720490 
	C469.374786,179.101959 486.667358,150.470032 504.107269,121.928162 
	C504.954651,120.541367 507.101746,119.156380 508.668793,119.127258 
	C520.990540,118.898285 533.318420,119.000221 546.382202,119.000221 
	C542.479858,125.389793 538.863037,131.350723 535.208679,137.288574 
	C521.471802,159.609207 507.731995,181.928024 493.971771,204.234222 
	C490.509583,209.846649 486.473175,215.176788 483.682098,221.099182 
	C482.397705,223.824478 482.238892,228.398407 483.701233,230.876068 
	C490.732574,242.789810 498.555725,254.233322 505.977997,265.919861 
	C519.521057,287.243683 532.978027,308.622162 546.485291,329.968719 
	C546.745789,330.380402 547.183411,330.679993 547.754272,331.343475 
z"/>
<path fill="#FFFFFF" opacity="1.000000" stroke="none" 
	d="
M1236.000000,181.000000 
	C1236.000000,171.190063 1236.000000,161.880127 1236.000000,152.173798 
	C1213.378906,152.173798 1190.972778,152.173798 1168.284668,152.173798 
	C1168.284668,141.043152 1168.284668,130.304611 1168.284668,119.281807 
	C1202.296997,119.281807 1236.365845,119.281807 1271.000000,119.281807 
	C1271.000000,150.152588 1271.000000,181.079559 1271.000000,212.006546 
	C1271.000000,242.813446 1271.000000,273.620331 1271.000000,304.824585 
	C1294.619751,304.824585 1318.025391,304.824585 1341.714355,304.824585 
	C1341.714355,315.621643 1341.714355,326.027008 1341.714355,336.717346 
	C1281.373291,336.717346 1220.973633,336.717346 1160.286865,336.717346 
	C1160.286865,326.380981 1160.286865,315.975555 1160.286865,305.170197 
	C1185.291992,305.170197 1210.364014,305.170197 1236.000000,305.170197 
	C1236.000000,263.683441 1236.000000,222.591721 1236.000000,181.000000 
z"/>
<path fill="#FFFFFE" opacity="1.000000" stroke="none" 
	d="
M799.005127,306.835205 
	C803.452148,299.925110 807.899170,293.015045 812.645630,285.915466 
	C820.624878,301.193176 829.066345,316.342346 835.706421,332.243713 
	C839.861755,342.194641 842.065430,353.165802 843.651184,363.899811 
	C844.471191,369.450134 843.671387,376.009033 838.854492,380.612915 
	C834.205750,385.056152 828.751526,385.427246 822.613403,384.337341 
	C805.864929,381.363403 792.345459,372.048065 779.076355,362.421448 
	C768.958008,355.080688 759.436829,346.916809 749.305664,338.636627 
	C747.662598,336.685913 746.422607,335.160339 745.055847,333.758270 
	C729.636902,317.941101 713.753540,302.549347 698.864990,286.248535 
	C673.671509,258.665131 651.273743,228.855545 631.035950,197.442810 
	C626.036255,189.682358 621.117798,181.869507 616.161987,174.080719 
	C606.305664,156.464523 596.844666,138.669113 590.706909,119.319016 
	C587.850891,110.315178 585.668213,101.218002 585.998474,91.680328 
	C586.453308,78.546066 595.756165,73.328514 607.297302,75.610527 
	C626.102478,79.328842 640.918213,90.369286 655.750793,101.359802 
	C663.183350,106.867134 670.143250,113.012344 677.629395,119.017502 
	C670.912842,122.589546 663.883850,126.013168 656.186340,129.223022 
	C648.454956,122.948936 641.582031,116.647087 634.273071,110.899628 
	C627.625977,105.672630 621.235901,99.875450 612.579529,97.834557 
	C609.044983,97.001205 605.627075,99.344048 606.077148,102.902138 
	C606.353821,105.090118 606.910339,107.334274 607.820435,109.335236 
	C612.646973,119.947090 617.460449,130.571548 622.635254,141.014877 
	C624.597412,144.974686 627.512939,148.462082 629.993896,152.164795 
	C632.124329,156.377960 633.723877,160.978424 636.469910,164.742493 
	C656.919617,192.773392 677.130981,220.999298 698.376099,248.421005 
	C711.229858,265.011658 725.608765,280.444000 739.661255,296.074219 
	C748.756775,306.190857 758.482422,315.742279 767.974915,325.499054 
	C769.221558,326.780304 770.761292,327.776398 772.630981,329.260498 
	C779.932861,335.773071 786.402100,342.414398 793.710632,347.946899 
	C800.701050,353.238678 808.341370,357.804169 816.124329,361.868652 
	C821.065674,364.449158 823.631165,362.592163 822.817078,357.192932 
	C821.970703,351.579987 820.415894,345.807831 817.857239,340.772919 
	C811.998535,329.244171 805.339233,318.122284 799.005127,306.835205 
z"/>
<path fill="#FFAB40" opacity="1.000000" stroke="none" 
	d="
M616.078125,174.445618 
	C621.117798,181.869507 626.036255,189.682358 631.035950,197.442810 
	C651.273743,228.855545 673.671509,258.665131 698.864990,286.248535 
	C713.753540,302.549347 729.636902,317.941101 745.055847,333.758270 
	C746.422607,335.160339 747.662598,336.685913 748.983276,338.494568 
	C737.380249,341.984222 725.581543,343.004333 713.512329,343.154083 
	C689.961731,343.446289 668.976685,336.251953 649.784424,323.209045 
	C636.976562,314.504944 627.442566,302.814423 619.725220,289.432770 
	C612.018188,276.068939 608.341736,261.704498 606.897705,246.468384 
	C604.943420,225.849915 605.436646,205.510864 611.805603,185.619720 
	C612.981812,181.946213 614.586975,178.410065 616.078125,174.445618 
z"/>
<path fill="#FFFFFF" opacity="1.000000" stroke="none" 
	d="
M1270.148071,28.652283 
	C1280.128906,35.688839 1284.248291,44.928162 1284.135254,56.806461 
	C1284.008301,70.145111 1273.150146,83.705917 1258.397339,85.898796 
	C1241.229980,88.450562 1226.918579,77.969307 1222.904907,61.848835 
	C1218.753418,45.175022 1229.871460,29.072636 1245.547485,24.981081 
	C1254.184448,22.726763 1262.180664,24.368196 1270.148071,28.652283 
z"/>
<path fill="#000000" opacity="1.000000" stroke="none" 
	d="
M1798.947510,147.997864 
	C1825.246338,153.597137 1842.337769,169.485657 1852.113892,193.546570 
	C1861.011108,215.444321 1860.554932,238.064941 1853.782349,260.117615 
	C1845.831055,286.008331 1827.912720,303.129059 1801.233398,308.628082 
	C1779.220337,313.165253 1758.407959,308.961273 1740.405640,294.044922 
	C1726.640991,282.639587 1718.879395,267.977509 1716.173584,250.758133 
	C1714.549805,240.424805 1713.729614,229.776505 1714.192383,219.342697 
	C1715.197632,196.679596 1723.759888,177.024078 1741.413208,162.253769 
	C1753.099121,152.476303 1766.861206,147.144714 1782.291870,147.057831 
	C1787.693359,147.027405 1793.098511,147.663956 1798.947510,147.997864 
z"/>
<path fill="#000000" opacity="1.000000" stroke="none" 
	d="
M798.688232,306.980652 
	C805.339233,318.122284 811.998535,329.244171 817.857239,340.772919 
	C820.415894,345.807831 821.970703,351.579987 822.817078,357.192932 
	C823.631165,362.592163 821.065674,364.449158 816.124329,361.868652 
	C808.341370,357.804169 800.701050,353.238678 793.710632,347.946899 
	C786.402100,342.414398 779.932861,335.773071 772.967102,329.295227 
	C778.781616,324.331787 784.826294,319.810699 790.626709,314.995239 
	C793.444092,312.656281 795.804321,309.766510 798.688232,306.980652 
z"/>
<path fill="#000000" opacity="1.000000" stroke="none" 
	d="
M630.307373,152.008942 
	C627.512939,148.462082 624.597412,144.974686 622.635254,141.014877 
	C617.460449,130.571548 612.646973,119.947090 607.820435,109.335236 
	C606.910339,107.334274 606.353821,105.090118 606.077148,102.902138 
	C605.627075,99.344048 609.044983,97.001205 612.579529,97.834557 
	C621.235901,99.875450 627.625977,105.672630 634.273071,110.899628 
	C641.582031,116.647087 648.454956,122.948936 655.809570,129.256256 
	C646.342041,135.510147 637.456604,142.513184 630.307373,152.008942 
z"/>
<path fill="#000000" opacity="1.000000" stroke="none" 
	d="
M2096.000000,207.000000 
	C2058.715576,207.000000 2021.931396,207.000000 1985.088867,207.000000 
	C1990.587158,170.980179 2021.212646,142.478073 2064.570801,147.200134 
	C2098.224121,150.865234 2122.576904,175.652557 2123.874023,207.000000 
	C2114.741455,207.000000 2105.620850,207.000000 2096.000000,207.000000 
z"/>
</svg>